<?xml version="1.0" standalone="no"?>
<!DOCTYPE svg PUBLIC "-//W3C//DTD SVG 20010904//EN"
 "http://www.w3.org/TR/2001/REC-SVG-20010904/DTD/svg10.dtd">
<svg version="1.0" xmlns="http://www.w3.org/2000/svg"
 width="480.000000pt" height="480.000000pt" viewBox="0 0 480.000000 480.000000"
 preserveAspectRatio="xMidYMid meet">

<g transform="translate(0.000000,480.000000) scale(0.100000,-0.100000)"
fill="#000000" stroke="none">
<path d="M0 2400 l0 -2400 2400 0 2400 0 0 2400 0 2400 -2400 0 -2400 0 0
-2400z m2127 2078 c-3 -13 -18 -88 -33 -168 -15 -80 -39 -206 -53 -280 l-27
-135 -364 -3 c-201 -1 -370 0 -376 2 -7 3 11 108 50 305 l60 301 374 0 374 0
-5 -22z m283 13 c0 -8 -89 -485 -106 -568 l-6 -33 -84 0 c-56 0 -84 4 -84 11
0 13 108 556 116 582 5 14 18 17 85 17 43 0 79 -4 79 -9z m250 -173 c7 -101
16 -191 19 -200 4 -12 37 46 101 182 l95 199 83 1 c45 0 82 -2 82 -4 0 -4 -53
-107 -209 -409 l-103 -198 -91 3 -91 3 -38 290 c-20 160 -37 296 -38 303 0 9
24 12 88 12 l89 0 13 -182z m876 120 l-11 -63 -80 -5 -80 -5 -46 -235 -46
-235 -82 -3 c-44 -2 -81 1 -81 5 0 4 18 100 40 213 22 113 42 217 45 233 l5
27 -75 0 c-84 0 -82 -3 -64 80 l11 50 237 0 238 0 -11 -62z m-441 -1818 c374
-374 682 -687 683 -696 4 -17 -74 -104 -92 -104 -6 0 -57 46 -113 102 l-103
103 0 -867 c0 -780 -2 -866 -16 -872 -20 -8 -2108 -8 -2128 0 -14 6 -16 91
-16 862 l0 857 -88 -88 c-48 -48 -95 -87 -103 -87 -16 0 -99 82 -99 97 0 13
1370 1373 1383 1373 7 0 319 -306 692 -680z"/>
<path d="M1440 4435 c0 -2 12 -29 27 -60 l27 -55 231 1 230 0 48 60 49 59
-306 0 c-168 0 -306 -2 -306 -5z"/>
<path d="M1530 4250 l20 -40 153 1 152 1 34 39 33 39 -206 0 -206 0 20 -40z"/>
<path d="M1510 4145 l-34 -35 202 0 202 0 -17 35 -17 35 -151 0 -151 0 -34
-35z"/>
<path d="M1390 4010 l-52 -60 311 0 c171 0 311 2 311 5 0 2 -12 29 -27 60
l-27 55 -232 0 -232 0 -52 -60z"/>
<path d="M1937 2622 l-467 -467 0 -858 0 -857 925 0 925 0 0 872 0 871 -452
454 c-249 249 -455 453 -458 453 -3 0 -215 -210 -473 -468z m56 -538 c160 -30
365 -114 500 -206 112 -75 295 -256 361 -355 81 -123 143 -253 176 -368 33
-118 60 -271 60 -347 l0 -48 -80 0 -80 0 0 38 c0 131 -69 388 -137 512 -124
227 -309 406 -528 511 -168 80 -312 119 -441 119 l-64 0 0 86 0 86 78 -7 c42
-4 112 -13 155 -21z m4 -364 c312 -87 551 -298 675 -593 28 -69 68 -263 68
-334 l0 -33 -84 0 -85 0 -6 48 c-26 203 -60 301 -150 426 -70 98 -250 256
-291 256 -7 0 -40 13 -75 29 -66 31 -192 61 -254 61 l-35 0 0 86 0 87 83 -6
c45 -4 115 -15 154 -27z m-87 -350 c109 -26 189 -72 284 -165 105 -101 178
-258 188 -400 l3 -40 -75 -3 -75 -3 -11 69 c-15 94 -50 165 -123 250 -77 90
-166 136 -303 157 l-38 6 0 74 0 75 31 0 c17 0 71 -9 119 -20z m-50 -341 c87
-39 161 -136 176 -228 l7 -41 -142 0 -141 0 0 145 0 145 28 0 c15 0 47 -10 72
-21z"/>
</g>
</svg>
